# xmcd CD database file
#
# Track frame offsets:
#	150
#	46715
#	106985
#	162617
#	215082
#	261897
#
# Disc length: 4123 seconds
#
# Revision: 0
# Processed by: cddbd v1.5.2PL0 Copyright (c) Steve Scherf et al.
# Submitted via: CDex 1.51
#
DISCID=52101906
DTITLE=Bud Shank and Rein De Graaf - Alone Together
DYEAR=2000
DGENRE=Jazz
TTITLE0=Alone Together
TTITLE1=I Can't get Started
TTITLE2=On The Trail
TTITLE3=My Funny Valentine
TTITLE4=What's New
TTITLE5=Stella By Starlight
EXTD=YEAR: 2000
EXTT0=
EXTT1=
EXTT2=
EXTT3=
EXTT4=
EXTT5=
PLAYORDER=
